<?xml version="1.0" encoding="UTF-8"?>
<svg width="15px" height="15px" viewBox="0 0 15 15" version="1.1" xmlns="http://www.w3.org/2000/svg" xmlns:xlink="http://www.w3.org/1999/xlink">
    <!-- Generator: Sketch 64 (93537) - https://sketch.com -->
    <title>kejian@3x</title>
    <desc>Created with Sketch.</desc>
    <g id="页面-1" stroke="none" stroke-width="1" fill="none" fill-rule="evenodd">
        <g id="自定义预设-2" transform="translate(-211.000000, -285.000000)" fill="#3F83D1" fill-rule="nonzero">
            <g id="kejian" transform="translate(211.000000, 285.000000)">
                <path d="M13.9286085,14.5788392 L13.9286085,3.63641039 C13.9286085,3.40498332 14.170743,3.21427028 14.4643042,3.21427028 C14.7578655,3.21427028 15,3.40498332 15,3.63641039 L15,14.5777677 C14.9871433,14.8091948 14.7578655,14.9999079 14.4643042,14.9999079 C14.1707429,14.9999079 13.9286085,14.8091948 13.9286085,14.5788392 L13.9286085,14.5788392 Z M0.0069468778,2.31641897 C-0.00231562593,2.20089081 -0.00231562593,2.08480654 0.0069468778,1.96927838 L0.0069468778,1.71963714 C0.00832262503,1.61618814 0.0480256859,1.5169277 0.118371598,1.44106754 C0.417397096,0.578342239 1.23024661,2.72570415e-06 2.14330159,2.72570415e-06 L12.3279495,2.72570415e-06 C12.4777716,-0.000474795092 12.6209484,0.0618101191 12.7227392,0.171747311 C12.82453,0.281684503 12.8756319,0.429226384 12.8636453,0.578573149 L12.8636453,3.08569968 C12.8637927,3.12888467 12.8594843,3.17196964 12.8507886,3.21427028 L14.4643042,3.21427028 C14.6556899,3.21427028 14.8325375,3.31637618 14.9282304,3.48212568 C15.0239232,3.64787518 15.0239232,3.85208698 14.9282304,4.01783649 C14.8325375,4.18358599 14.6556899,4.28569189 14.4643042,4.28569188 L2.14330159,4.28569188 C1.75545785,4.28569188 1.39332752,4.18283541 1.07833841,4.00283657 L1.07833841,13.4752749 C1.13385101,13.745138 1.37506379,13.9362164 1.65046149,13.9284863 L14.4643042,13.9284863 C14.7601608,13.9284863 15,14.1683322 15,14.4641971 C15,14.760062 14.7601608,14.9999543 14.4643042,14.9999543 L1.65046149,14.9999543 C0.941093679,15.0052127 0.307946731,14.5559117 0.0787301116,13.884558 C0.0324888694,13.8173924 0.00748128073,13.7378884 0.0069468778,13.6563452 L0.0069468778,13.5406316 C0.00251188928,13.4914726 0.000366789046,13.4421339 0.000518537029,13.3927755 L0.000518537029,10.1785107 C0.000518537029,10.1495823 0.00266131728,10.1206539 0.0069468778,10.0927969 L0.0069468778,2.31641897 Z M1.07833841,2.02070662 L1.07833841,2.26499074 C1.1404307,2.80612494 1.59863183,3.2145531 2.14330159,3.21427043 L11.8072532,3.21427043 C11.7976482,3.1720769 11.7926193,3.12897103 11.7922537,3.08569968 L11.7922537,1.07142694 L2.14330159,1.07142694 C1.59863183,1.07114427 1.1404307,1.47957243 1.07833841,2.02070662 Z M3.75038889,6.42853507 L11.2501296,6.42853507 C11.4415364,6.42850343 11.6184171,6.53060241 11.7141296,6.6963649 C11.8098421,6.8621274 11.8098421,7.06636435 11.7141296,7.23212684 C11.6184171,7.39788934 11.4415364,7.49998832 11.2501296,7.49995667 L3.75038889,7.49995667 C3.45456689,7.49990775 3.21478171,7.26007618 3.21478171,6.96424587 C3.21478171,6.66841556 3.45456689,6.428584 3.75038889,6.42853507 L3.75038889,6.42853507 Z M3.75038889,9.64279986 L8.03595503,9.64279986 C8.33181163,9.64279986 8.57165079,9.88264576 8.57165079,10.1785107 C8.57165079,10.4743756 8.33181163,10.7142215 8.03595503,10.7142215 L3.75038889,10.7142215 C3.45453229,10.7142215 3.21469312,10.4743756 3.21469312,10.1785107 C3.21469312,9.88264576 3.45453229,9.64279986 3.75038889,9.64279986 L3.75038889,9.64279986 Z" id="形状"></path>
            </g>
        </g>
    </g>
</svg>