<?xml version="1.0" encoding="UTF-8"?>
<svg width="122px" height="118px" viewBox="0 0 122 118" version="1.1" xmlns="http://www.w3.org/2000/svg" xmlns:xlink="http://www.w3.org/1999/xlink">
    <!-- Generator: Sketch 64 (93537) - https://sketch.com -->
    <title>添加文档@3x</title>
    <desc>Created with Sketch.</desc>
    <g id="页面-1" stroke="none" stroke-width="1" fill="none" fill-rule="evenodd">
        <g id="添加文档" fill="#545C64" fill-rule="nonzero">
            <path d="M121.996967,101.750952 L121.996967,75.0408491 C121.996967,71.9978224 121.580734,69.0025775 119.676979,66.4878825 C117.190497,63.1963896 113.576774,61.3274333 109.428089,61.3206073 L102.71377,61.3206073 L102.71377,16.3619004 C102.71377,14.8943123 102.810664,13.3789423 102.663276,11.9140846 C102.247043,7.77343852 100.328276,4.0860382 96.7950702,1.76383607 C94.9759264,0.566557251 92.7582904,0.00546079278 90.588419,0 L32.9721902,0 C30.1568161,0 27.4110416,0.227988098 24.9859714,1.91127747 C21.510083,4.32085228 19.5599281,8.11473807 19.3074587,12.3099921 C19.2774354,12.8069243 19.2897177,13.307952 19.2897177,13.8117101 L19.2897177,61.3178769 L12.6613744,61.3178769 C9.21823874,61.3178769 5.81740874,62.5683984 3.43055012,65.1158583 C1.26404686,67.4243338 0.0459738686,70.4642938 0.0188025201,73.6305994 L0.0188025201,91.9706719 C0.0188025201,96.5331643 -0.0235031501,101.098387 0.0188025201,105.660879 C0.0460965009,108.672507 1.12284404,111.420651 3.0306933,113.725105 C5.12141223,116.250722 8.17970277,117.598172 11.3826514,117.938107 C12.118138,117.994777 12.8561033,118.012549 13.5934639,117.99135 L109.683288,117.99135 C109.76244,117.99135 109.841593,117.99135 109.919381,117.983158 C113.101859,117.88896 116.209279,116.611134 118.44875,114.323062 C120.699113,112.008833 121.970118,108.915251 121.996967,105.686818 C122.003791,104.370767 121.996967,103.060177 121.996967,101.750952 L121.996967,101.750952 Z M112.276455,70.4746624 C112.178547,70.3930068 112.085841,70.3018491 111.999182,70.2020189 C112.009015,70.1846688 112.127003,70.2962048 112.268589,70.4622696 L112.276455,70.4746624 Z M93.754492,9.91271786 C93.6554831,9.8255175 93.5634378,9.73388019 93.4788515,9.63829925 C93.6402021,9.76954293 93.7724199,9.88885537 93.754492,9.91271786 L93.754492,9.91271786 Z M29.6909588,8.6212266 C29.7027264,8.63983125 29.5713214,8.7584359 29.4144198,8.8956452 L29.6909588,8.6212266 Z M29.2711264,8.90655302 C29.5440662,8.73999884 29.817006,8.57890545 30.0899458,8.43282925 C30.340574,8.35121152 30.5951923,8.28240754 30.8528126,8.22668432 C31.4464567,8.19391956 32.0455596,8.21166714 32.637839,8.21166714 L83.7130652,8.21166714 C86.0507946,8.21166714 88.3898888,8.19118916 90.7276183,8.21166714 C90.8640882,8.21166714 91.0087463,8.21849313 91.1493103,8.22668432 C91.4102748,8.28267837 91.668106,8.35240029 91.9217299,8.43555964 C92.1946697,8.57207946 92.4457743,8.72498166 92.7023378,8.88470985 C92.8633722,9.02942086 93.023042,9.17413186 93.1745236,9.32976446 C93.1963588,9.35297283 93.3014406,9.45672789 93.4078872,9.56730894 C93.4515575,9.62874286 93.4952279,9.69154198 93.5443571,9.7557063 C93.7462706,10.0685594 93.9285808,10.3936463 94.0902367,10.7290926 C94.2554112,11.1994456 94.3858628,11.6812891 94.4805406,12.1707419 C94.6347516,13.9359432 94.5078346,15.7680391 94.5078346,17.523684 L94.5078346,57.5581211 C94.5078346,58.811373 94.4928229,60.0659901 94.4900935,61.3206073 L27.4942883,61.3206073 L27.4942883,18.6963893 C27.4942883,16.7769206 27.4806413,14.8560867 27.4942883,12.9366181 C27.4942883,12.6635784 27.5079353,12.4041908 27.5284058,12.1393423 C27.6231511,11.6593968 27.7517545,11.1867662 27.9132509,10.724997 C28.0636943,10.4165627 28.2318327,10.1170849 28.4168248,9.8280618 C28.4359306,9.79666224 28.4700481,9.74751511 28.5096244,9.69154198 C28.6188003,9.56457855 28.7689172,9.38846798 28.8289639,9.32566886 C28.9708926,9.17959266 29.1196448,9.03897724 29.2724911,8.90245742 L29.2711264,8.90655302 Z M9.15755276,71.1295563 C9.07753017,71.2278582 8.98519468,71.3197777 8.8818924,71.4039749 C8.86435037,71.3864588 8.99215654,71.269685 9.15755276,71.1295563 L9.15755276,71.1295563 Z M9.81870632,108.963294 C9.91727291,109.043076 10.0100575,109.133674 10.095979,109.234032 C10.0725475,109.261106 9.95734268,109.135582 9.81870632,108.963294 L9.81870632,108.963294 Z M89.3301664,109.782413 L12.4157286,109.782413 C12.1987414,109.782413 11.983119,109.774222 11.7674965,109.76057 C11.4108028,109.68543 11.0589781,109.588779 10.7139489,109.471148 C10.432286,109.330846 10.1588974,109.174501 9.89512947,109.002885 C9.8446356,108.97012 9.79414174,108.934625 9.74501257,108.900495 C9.59489568,108.763975 9.43386119,108.596056 9.4188495,108.579673 C9.2823796,108.443153 9.15955668,108.290251 9.02718088,108.149636 C8.84309942,107.871173 8.67629198,107.581661 8.52770103,107.282735 C8.4090227,106.93456 8.31194443,106.579388 8.23702013,106.219245 C8.15377349,105.087496 8.21654965,103.928443 8.21654965,102.80625 L8.21654965,77.2906958 C8.21654965,75.9254976 8.12511481,74.4988655 8.23156134,73.1200153 C8.30754776,72.7501734 8.40645187,72.3854166 8.52770103,72.0278567 C8.66821159,71.7462297 8.82449042,71.4727557 8.9957928,71.2087378 C9.02854558,71.1568603 9.06402775,71.1077131 9.09814523,71.058566 C9.23461513,70.9083942 9.40247311,70.7473008 9.4188495,70.7309184 C9.55531941,70.5943986 9.7081657,70.472896 9.8487297,70.3404718 C10.1270905,70.156323 10.4164969,69.9894545 10.7153136,69.8408092 C11.0592216,69.7225448 11.4101775,69.6258827 11.7661318,69.5513872 C12.7377976,69.4831273 13.7299338,69.529544 14.6961407,69.529544 L109.5823,69.529544 C109.800652,69.529544 110.017639,69.5377352 110.234626,69.5513872 C110.591963,69.625717 110.944292,69.7223805 111.289539,69.8408092 C111.571202,69.9811112 111.84459,70.1374555 112.108358,70.3090722 C112.158852,70.341837 112.207981,70.3773321 112.258475,70.4114621 C112.408592,70.5479819 112.569626,70.7159013 112.584638,70.7309184 C112.721108,70.8674383 112.842566,71.0217057 112.974942,71.1623211 C113.159538,71.4404651 113.326365,71.73001 113.474422,72.0292219 C113.59435,72.3771229 113.691898,72.7323454 113.766467,73.0927113 C113.849714,74.2244606 113.786938,75.3835139 113.786938,76.5057068 L113.786938,102.026722 C113.786938,103.39192 113.877008,104.818552 113.770562,106.197402 C113.696097,106.567605 113.597166,106.932459 113.474422,107.289561 C113.334692,107.571605 113.178388,107.845124 113.00633,108.10868 C112.973577,108.159192 112.93946,108.209704 112.903978,108.258852 C112.767508,108.409023 112.59965,108.570117 112.584638,108.585134 C112.448168,108.721654 112.295322,108.844522 112.153393,108.976946 C111.875319,109.160796 111.586386,109.327655 111.288174,109.476608 C110.941461,109.595152 110.587792,109.692264 110.229168,109.767396 C110.047663,109.778317 109.866158,109.786508 109.683288,109.787874 L89.327437,109.787874 L89.3301664,109.782413 Z M112.975796,108.261042 C113.056942,108.164689 113.14796,108.073562 113.247969,107.988542 C113.252917,108.015409 113.136625,108.122873 112.970848,108.262961 L112.975796,108.261042 Z" id="形状"></path>
            <path d="M55.1026457,29.7778095 L66.2028548,29.7357824 L83.8731876,29.6670657 L87.8973543,29.6505228 C90.041031,29.6428876 92.0960697,27.8969752 91.9965224,25.8252949 C91.8969751,23.7536146 90.1951248,21.9911593 87.8973543,22.0000334 L76.7971452,22.043333 L59.1268124,22.1120497 L55.1026457,22.1273201 C52.958969,22.1362278 50.9039303,23.8808677 51.0034776,25.952548 C51.1030249,28.0242283 52.8116935,29.7866836 55.1026457,29.7778095 Z M87.8973543,38.3495442 L55.1026457,38.3495442 C52.9576053,38.3495442 50.9039303,40.1081819 51.0034776,42.1747721 C51.1030249,44.2413623 52.8116935,46 55.1026457,46 L87.8973543,46 C90.0423947,46 92.0960697,44.2400897 91.9965224,42.1747721 C91.8969751,40.1094544 90.1951248,38.3495442 87.8973543,38.3495442 Z" id="形状"></path>
            <path d="M41,22 L41,22 C43.6666667,22 45,23.3333333 45,26 L45,26 C45,28.6666667 43.6666667,30 41,30 L41,30 C38.3333333,30 37,28.6666667 37,26 L37,26 C37,23.3333333 38.3333333,22 41,22 Z" id="路径"></path>
            <path d="M41,39 L41,39 C43.6666667,39 45,40.3333333 45,43 L45,43 C45,45.6666667 43.6666667,47 41,47 L41,47 C38.3333333,47 37,45.6666667 37,43 L37,43 C37,40.3333333 38.3333333,39 41,39 Z" id="路径"></path>
        </g>
    </g>
</svg>